<?xml version="1.0" standalone="no"?>
<!DOCTYPE svg PUBLIC "-//W3C//DTD SVG 20010904//EN"
 "http://www.w3.org/TR/2001/REC-SVG-20010904/DTD/svg10.dtd">
<svg version="1.0" xmlns="http://www.w3.org/2000/svg"
 width="176.000000pt" height="144.000000pt" viewBox="0 0 176.000000 144.000000"
 preserveAspectRatio="xMidYMid meet">

<g transform="translate(0.000000,144.000000) scale(0.100000,-0.100000)"
fill="#000000" stroke="none">
<path d="M0 720 l0 -720 880 0 880 0 0 720 0 720 -880 0 -880 0 0 -720z m1150
394 c65 -30 125 -95 150 -162 20 -52 21 -72 18 -316 -3 -242 -5 -264 -24 -306
-29 -61 -78 -108 -144 -139 -55 -26 -56 -26 -320 -26 -250 0 -268 1 -311 21
-57 26 -118 85 -144 139 -18 36 -20 65 -23 307 -2 164 1 282 8 306 14 52 61
116 110 148 73 48 113 54 385 51 230 -2 254 -4 295 -23z"/>
<path d="M533 1045 c-56 -28 -95 -77 -112 -140 -6 -23 -11 -133 -11 -256 0
-244 9 -293 62 -348 64 -66 85 -71 352 -71 151 0 253 4 277 11 47 15 104 61
126 102 17 34 25 107 12 107 -14 0 -11 387 3 409 28 46 -39 157 -117 192 -35
16 -70 19 -291 19 -248 0 -251 0 -301 -25z m601 -86 c35 -28 33 -73 -6 -102
-24 -18 -30 -18 -57 -7 -50 20 -55 95 -9 118 33 16 42 14 72 -9z m-189 -69
c58 -25 120 -97 139 -161 20 -65 20 -92 1 -155 -32 -109 -135 -184 -253 -184
-110 0 -184 46 -233 146 -29 58 -31 70 -27 134 4 55 12 81 34 117 71 114 214
158 339 103z"/>
<path d="M786 800 c-122 -38 -144 -213 -34 -280 44 -27 120 -27 164 0 35 22
74 91 74 131 0 39 -42 112 -75 131 -39 22 -93 29 -129 18z"/>
</g>
</svg>
