<?xml version="1.0" standalone="no"?>
<!DOCTYPE svg PUBLIC "-//W3C//DTD SVG 20010904//EN"
 "http://www.w3.org/TR/2001/REC-SVG-20010904/DTD/svg10.dtd">
<svg version="1.0" xmlns="http://www.w3.org/2000/svg"
 width="178.000000pt" height="162.000000pt" viewBox="0 0 178.000000 162.000000"
 preserveAspectRatio="xMidYMid meet">

<g transform="translate(0.000000,162.000000) scale(0.100000,-0.100000)"
fill="#000000" stroke="none">
<path d="M0 810 l0 -810 890 0 890 0 0 810 0 810 -890 0 -890 0 0 -810z m593
282 c73 -65 49 -181 -41 -199 -99 -19 -162 25 -162 114 0 46 22 80 64 99 39
18 112 11 139 -14z m644 -287 c36 -11 62 -28 91 -59 64 -69 72 -111 72 -373
l0 -223 -110 0 -110 0 0 195 c0 210 -7 248 -51 279 -30 21 -83 21 -115 0 -49
-33 -54 -57 -54 -274 l0 -200 -112 0 -113 0 0 325 0 325 113 0 112 0 0 -37 0
-37 34 33 c60 59 146 75 243 46z m-617 -330 l0 -325 -110 0 -110 0 0 325 0
325 110 0 110 0 0 -325z"/>
</g>
</svg>
