<?xml version="1.0" standalone="no"?>
<!DOCTYPE svg PUBLIC "-//W3C//DTD SVG 20010904//EN"
 "http://www.w3.org/TR/2001/REC-SVG-20010904/DTD/svg10.dtd">
<svg version="1.0" xmlns="http://www.w3.org/2000/svg"
 width="226.000000pt" height="160.000000pt" viewBox="0 0 226.000000 160.000000"
 preserveAspectRatio="xMidYMid meet">

<g transform="translate(0.000000,160.000000) scale(0.100000,-0.100000)"
fill="#000000" stroke="none">
<path d="M0 800 l0 -800 1130 0 1130 0 0 800 0 800 -1130 0 -1130 0 0 -800z
m1546 375 c53 -16 99 -56 130 -115 17 -31 19 -59 19 -225 0 -132 -4 -201 -13
-227 -18 -50 -91 -113 -147 -127 -59 -15 -640 -15 -699 0 -56 14 -109 58 -135
112 -19 39 -21 61 -21 235 0 205 6 240 53 290 23 25 66 50 107 63 14 4 167 8
341 8 251 1 326 -2 365 -14z"/>
<path d="M1050 830 c0 -77 4 -140 9 -140 12 0 281 129 281 135 0 5 -275 145
-285 145 -3 0 -5 -63 -5 -140z"/>
</g>
</svg>
