<?xml version="1.0" standalone="no"?>
<!DOCTYPE svg PUBLIC "-//W3C//DTD SVG 20010904//EN"
 "http://www.w3.org/TR/2001/REC-SVG-20010904/DTD/svg10.dtd">
<svg version="1.0" xmlns="http://www.w3.org/2000/svg"
 width="174.000000pt" height="164.000000pt" viewBox="0 0 174.000000 164.000000"
 preserveAspectRatio="xMidYMid meet">

<g transform="translate(0.000000,164.000000) scale(0.100000,-0.100000)"
fill="#000000" stroke="none">
<path d="M0 820 l0 -820 870 0 870 0 0 820 0 820 -870 0 -870 0 0 -820z m1312
186 c21 -8 50 -22 65 -32 32 -21 47 -20 109 6 55 24 58 10 9 -48 l-36 -41 48
14 c26 8 49 12 52 10 2 -3 -19 -28 -47 -56 -39 -39 -52 -59 -52 -81 0 -16 -7
-64 -16 -106 -59 -292 -316 -487 -615 -469 -90 6 -205 39 -257 74 l-27 18 84
7 c65 5 99 14 149 39 l64 31 -51 18 c-56 19 -95 49 -117 92 -21 40 -18 44 24
41 l37 -4 -37 20 c-50 28 -94 85 -108 138 -13 53 -9 60 25 45 40 -18 50 -14
28 11 -53 57 -71 149 -44 215 l13 32 60 -54 c93 -84 248 -156 338 -156 23 0
25 4 27 43 3 87 58 163 137 191 52 18 91 19 138 2z"/>
</g>
</svg>
